<?xml version="1.0" encoding="UTF-8" standalone="no"?>
<!DOCTYPE svg PUBLIC "-//W3C//DTD SVG 1.1//EN"
 "http://www.w3.org/Graphics/SVG/1.1/DTD/svg11.dtd">
<!-- Generated by graphviz version 11.0.0 (20240428.1522)
 -->
<!-- Title: classes_my_project Pages: 1 -->
<svg width="1832pt" height="737pt"
 viewBox="0.00 0.00 1831.88 736.75" xmlns="http://www.w3.org/2000/svg" xmlns:xlink="http://www.w3.org/1999/xlink">
<g id="graph0" class="graph" transform="scale(1 1) rotate(0) translate(4 732.75)">
<title>classes_my_project</title>
<polygon fill="white" stroke="none" points="-4,4 -4,-732.75 1827.88,-732.75 1827.88,4 -4,4"/>
<!-- aiogram&#45;coursework.models.base.Base -->
<g id="node1" class="node">
<title>aiogram&#45;coursework.models.base.Base</title>
<polygon fill="none" stroke="black" points="290.38,-533 290.38,-604.25 419.62,-604.25 419.62,-533 290.38,-533"/>
<text text-anchor="start" x="341.5" y="-586.95" font-family="Times New Roman,serif" font-size="14.00">Base</text>
<polyline fill="none" stroke="black" points="290.38,-580.5 419.62,-580.5"/>
<text text-anchor="start" x="298.38" y="-563.2" font-family="Times New Roman,serif" font-size="14.00">metadata : MetaData</text>
<polyline fill="none" stroke="black" points="290.38,-556.75 419.62,-556.75"/>
<text text-anchor="start" x="353.12" y="-539.45" font-family="Times New Roman,serif" font-size="14.00"> </text>
</g>
<!-- sqlalchemy.orm.decl_api.DeclarativeBase -->
<g id="node6" class="node">
<title>sqlalchemy.orm.decl_api.DeclarativeBase</title>
<polygon fill="none" stroke="black" points="249.5,-641.25 249.5,-728.25 460.5,-728.25 460.5,-641.25 249.5,-641.25"/>
<text text-anchor="start" x="310.75" y="-710.95" font-family="Times New Roman,serif" font-size="14.00">DeclarativeBase</text>
<polyline fill="none" stroke="black" points="249.5,-704.5 460.5,-704.5"/>
<text text-anchor="start" x="257.5" y="-687.2" font-family="Times New Roman,serif" font-size="14.00">metadata : ClassVar[MetaData]</text>
<text text-anchor="start" x="257.5" y="-671.45" font-family="Times New Roman,serif" font-size="14.00">registry : ClassVar[_RegistryType]</text>
<polyline fill="none" stroke="black" points="249.5,-665 460.5,-665"/>
<text text-anchor="start" x="353.12" y="-647.7" font-family="Times New Roman,serif" font-size="14.00"> </text>
</g>
<!-- aiogram&#45;coursework.models.base.Base&#45;&gt;sqlalchemy.orm.decl_api.DeclarativeBase -->
<g id="edge2" class="edge">
<title>aiogram&#45;coursework.models.base.Base&#45;&gt;sqlalchemy.orm.decl_api.DeclarativeBase</title>
<path fill="none" stroke="black" d="M355,-604.49C355,-612.42 355,-621.03 355,-629.55"/>
<polygon fill="none" stroke="black" points="351.5,-629.54 355,-639.54 358.5,-629.54 351.5,-629.54"/>
</g>
<!-- aiogram.dispatcher.middlewares.base.BaseMiddleware -->
<g id="node2" class="node">
<title>aiogram.dispatcher.middlewares.base.BaseMiddleware</title>
<polygon fill="none" stroke="black" points="792.88,-380.5 792.88,-428 901.12,-428 901.12,-380.5 792.88,-380.5"/>
<text text-anchor="start" x="800.88" y="-410.7" font-family="Times New Roman,serif" font-size="14.00">BaseMiddleware</text>
<polyline fill="none" stroke="black" points="792.88,-404.25 901.12,-404.25"/>
<polyline fill="none" stroke="black" points="792.88,-404.25 901.12,-404.25"/>
<text text-anchor="start" x="845.12" y="-386.95" font-family="Times New Roman,serif" font-size="14.00"> </text>
</g>
<!-- aiogram&#45;coursework.states.CreateJobSeeker -->
<g id="node3" class="node">
<title>aiogram&#45;coursework.states.CreateJobSeeker</title>
<polygon fill="none" stroke="black" points="994.88,-47.75 994.88,-213.5 1133.12,-213.5 1133.12,-47.75 994.88,-47.75"/>
<text text-anchor="start" x="1017.12" y="-196.2" font-family="Times New Roman,serif" font-size="14.00">CreateJobSeeker</text>
<polyline fill="none" stroke="black" points="994.88,-189.75 1133.12,-189.75"/>
<text text-anchor="start" x="1002.88" y="-172.45" font-family="Times New Roman,serif" font-size="14.00">email : State</text>
<text text-anchor="start" x="1002.88" y="-156.7" font-family="Times New Roman,serif" font-size="14.00">experience : State</text>
<text text-anchor="start" x="1002.88" y="-140.95" font-family="Times New Roman,serif" font-size="14.00">first_name : State</text>
<text text-anchor="start" x="1002.88" y="-125.2" font-family="Times New Roman,serif" font-size="14.00">last_name : State</text>
<text text-anchor="start" x="1002.88" y="-109.45" font-family="Times New Roman,serif" font-size="14.00">middle_name : State</text>
<text text-anchor="start" x="1002.88" y="-93.7" font-family="Times New Roman,serif" font-size="14.00">phone_number : State</text>
<text text-anchor="start" x="1002.88" y="-77.95" font-family="Times New Roman,serif" font-size="14.00">skills : State</text>
<polyline fill="none" stroke="black" points="994.88,-71.5 1133.12,-71.5"/>
<text text-anchor="start" x="1062.12" y="-54.2" font-family="Times New Roman,serif" font-size="14.00"> </text>
</g>
<!-- aiogram.fsm.state.StatesGroup -->
<g id="node11" class="node">
<title>aiogram.fsm.state.StatesGroup</title>
<polygon fill="none" stroke="black" points="1126.12,-380.5 1126.12,-428 1319.88,-428 1319.88,-380.5 1126.12,-380.5"/>
<text text-anchor="start" x="1187.75" y="-410.7" font-family="Times New Roman,serif" font-size="14.00">StatesGroup</text>
<polyline fill="none" stroke="black" points="1126.12,-404.25 1319.88,-404.25"/>
<polyline fill="none" stroke="black" points="1126.12,-404.25 1319.88,-404.25"/>
<text text-anchor="start" x="1134.12" y="-386.95" font-family="Times New Roman,serif" font-size="14.00">get_root(): Type[&#39;StatesGroup&#39;]</text>
</g>
<!-- aiogram&#45;coursework.states.CreateJobSeeker&#45;&gt;aiogram.fsm.state.StatesGroup -->
<g id="edge9" class="edge">
<title>aiogram&#45;coursework.states.CreateJobSeeker&#45;&gt;aiogram.fsm.state.StatesGroup</title>
<path fill="none" stroke="black" d="M1112.14,-213.86C1142.93,-266.46 1181.2,-331.84 1203.77,-370.4"/>
<polygon fill="none" stroke="black" points="1200.6,-371.9 1208.67,-378.77 1206.64,-368.37 1200.6,-371.9"/>
</g>
<!-- aiogram&#45;coursework.states.CreateVacancy -->
<g id="node4" class="node">
<title>aiogram&#45;coursework.states.CreateVacancy</title>
<polygon fill="none" stroke="black" points="1151.62,-55.62 1151.62,-205.62 1294.38,-205.62 1294.38,-55.62 1151.62,-55.62"/>
<text text-anchor="start" x="1180.62" y="-188.32" font-family="Times New Roman,serif" font-size="14.00">CreateVacancy</text>
<polyline fill="none" stroke="black" points="1151.62,-181.88 1294.38,-181.88"/>
<text text-anchor="start" x="1159.62" y="-164.57" font-family="Times New Roman,serif" font-size="14.00">company_name : State</text>
<text text-anchor="start" x="1159.62" y="-148.82" font-family="Times New Roman,serif" font-size="14.00">description : State</text>
<text text-anchor="start" x="1159.62" y="-133.07" font-family="Times New Roman,serif" font-size="14.00">location : State</text>
<text text-anchor="start" x="1159.62" y="-117.33" font-family="Times New Roman,serif" font-size="14.00">salary : State</text>
<text text-anchor="start" x="1159.62" y="-101.58" font-family="Times New Roman,serif" font-size="14.00">skills : State</text>
<text text-anchor="start" x="1159.62" y="-85.83" font-family="Times New Roman,serif" font-size="14.00">title : State</text>
<polyline fill="none" stroke="black" points="1151.62,-79.38 1294.38,-79.38"/>
<text text-anchor="start" x="1221.12" y="-62.08" font-family="Times New Roman,serif" font-size="14.00"> </text>
</g>
<!-- aiogram&#45;coursework.states.CreateVacancy&#45;&gt;aiogram.fsm.state.StatesGroup -->
<g id="edge10" class="edge">
<title>aiogram&#45;coursework.states.CreateVacancy&#45;&gt;aiogram.fsm.state.StatesGroup</title>
<path fill="none" stroke="black" d="M1223,-205.85C1223,-258.92 1223,-327.9 1223,-368.69"/>
<polygon fill="none" stroke="black" points="1219.5,-368.64 1223,-378.64 1226.5,-368.64 1219.5,-368.64"/>
</g>
<!-- aiogram&#45;coursework.middleware.DatabaseMiddleware -->
<g id="node5" class="node">
<title>aiogram&#45;coursework.middleware.DatabaseMiddleware</title>
<polygon fill="none" stroke="black" points="716.75,-95 716.75,-166.25 977.25,-166.25 977.25,-95 716.75,-95"/>
<text text-anchor="start" x="788.88" y="-148.95" font-family="Times New Roman,serif" font-size="14.00">DatabaseMiddleware</text>
<polyline fill="none" stroke="black" points="716.75,-142.5 977.25,-142.5"/>
<text text-anchor="start" x="724.75" y="-125.2" font-family="Times New Roman,serif" font-size="14.00">sessionmake : sessionmaker[AsyncSession]</text>
<polyline fill="none" stroke="black" points="716.75,-118.75 977.25,-118.75"/>
<text text-anchor="start" x="845.12" y="-101.45" font-family="Times New Roman,serif" font-size="14.00"> </text>
</g>
<!-- aiogram&#45;coursework.middleware.DatabaseMiddleware&#45;&gt;aiogram.dispatcher.middlewares.base.BaseMiddleware -->
<g id="edge1" class="edge">
<title>aiogram&#45;coursework.middleware.DatabaseMiddleware&#45;&gt;aiogram.dispatcher.middlewares.base.BaseMiddleware</title>
<path fill="none" stroke="black" d="M847,-166.58C847,-218.95 847,-317.17 847,-369.08"/>
<polygon fill="none" stroke="black" points="843.5,-368.81 847,-378.81 850.5,-368.81 843.5,-368.81"/>
</g>
<!-- aiogram&#45;coursework.models.job_seeker.JobSeeker -->
<g id="node7" class="node">
<title>aiogram&#45;coursework.models.job_seeker.JobSeeker</title>
<polygon fill="none" stroke="black" points="0,-24.12 0,-237.12 172,-237.12 172,-24.12 0,-24.12"/>
<text text-anchor="start" x="57.12" y="-219.82" font-family="Times New Roman,serif" font-size="14.00">JobSeeker</text>
<polyline fill="none" stroke="black" points="0,-213.38 172,-213.38"/>
<text text-anchor="start" x="8" y="-196.07" font-family="Times New Roman,serif" font-size="14.00">email : str</text>
<text text-anchor="start" x="8" y="-180.32" font-family="Times New Roman,serif" font-size="14.00">experience : int</text>
<text text-anchor="start" x="8" y="-164.57" font-family="Times New Roman,serif" font-size="14.00">first_name : str</text>
<text text-anchor="start" x="8" y="-148.82" font-family="Times New Roman,serif" font-size="14.00">full_name</text>
<text text-anchor="start" x="8" y="-133.07" font-family="Times New Roman,serif" font-size="14.00">id : int</text>
<text text-anchor="start" x="8" y="-117.33" font-family="Times New Roman,serif" font-size="14.00">last_name : str</text>
<text text-anchor="start" x="8" y="-101.58" font-family="Times New Roman,serif" font-size="14.00">middle_name : str</text>
<text text-anchor="start" x="8" y="-85.83" font-family="Times New Roman,serif" font-size="14.00">phone_number : str</text>
<text text-anchor="start" x="8" y="-70.08" font-family="Times New Roman,serif" font-size="14.00">short_name</text>
<text text-anchor="start" x="8" y="-54.33" font-family="Times New Roman,serif" font-size="14.00">skills : List[JobSeekerSkills]</text>
<polyline fill="none" stroke="black" points="0,-47.88 172,-47.88"/>
<text text-anchor="start" x="84.12" y="-30.57" font-family="Times New Roman,serif" font-size="14.00"> </text>
</g>
<!-- aiogram&#45;coursework.models.job_seeker.JobSeeker&#45;&gt;aiogram&#45;coursework.models.base.Base -->
<g id="edge3" class="edge">
<title>aiogram&#45;coursework.models.job_seeker.JobSeeker&#45;&gt;aiogram&#45;coursework.models.base.Base</title>
<path fill="none" stroke="black" d="M49.72,-237.5C29.77,-316.69 19.05,-423.32 75,-495.5 99.83,-527.53 204.72,-547.85 278.8,-558.49"/>
<polygon fill="none" stroke="black" points="278.07,-561.92 288.46,-559.84 279.04,-554.98 278.07,-561.92"/>
</g>
<!-- aiogram&#45;coursework.models.user.User -->
<g id="node12" class="node">
<title>aiogram&#45;coursework.models.user.User</title>
<polygon fill="none" stroke="black" points="82.62,-345 82.62,-463.5 213.38,-463.5 213.38,-345 82.62,-345"/>
<text text-anchor="start" x="134.88" y="-446.2" font-family="Times New Roman,serif" font-size="14.00">User</text>
<polyline fill="none" stroke="black" points="82.62,-439.75 213.38,-439.75"/>
<text text-anchor="start" x="90.62" y="-422.45" font-family="Times New Roman,serif" font-size="14.00">created_at : datetime</text>
<text text-anchor="start" x="90.62" y="-406.7" font-family="Times New Roman,serif" font-size="14.00">id : int</text>
<text text-anchor="start" x="90.62" y="-390.95" font-family="Times New Roman,serif" font-size="14.00">job_seeker</text>
<text text-anchor="start" x="90.62" y="-375.2" font-family="Times New Roman,serif" font-size="14.00">job_seeker_id : int</text>
<polyline fill="none" stroke="black" points="82.62,-368.75 213.38,-368.75"/>
<text text-anchor="start" x="146.12" y="-351.45" font-family="Times New Roman,serif" font-size="14.00"> </text>
</g>
<!-- aiogram&#45;coursework.models.job_seeker.JobSeeker&#45;&gt;aiogram&#45;coursework.models.user.User -->
<g id="edge12" class="edge">
<title>aiogram&#45;coursework.models.job_seeker.JobSeeker&#45;&gt;aiogram&#45;coursework.models.user.User</title>
<path fill="none" stroke="black" d="M110.15,-237.42C117.4,-269.21 125.19,-303.31 131.8,-332.27"/>
<polygon fill="black" stroke="black" points="131.78,-332.19 137.02,-337.15 134.45,-343.89 129.22,-338.93 131.78,-332.19"/>
<text text-anchor="middle" x="153.38" y="-281.7" font-family="Times New Roman,serif" font-size="14.00" fill="green">job_seeker</text>
</g>
<!-- aiogram&#45;coursework.models.job_seeker.JobSeekerSkills -->
<g id="node8" class="node">
<title>aiogram&#45;coursework.models.job_seeker.JobSeekerSkills</title>
<polygon fill="none" stroke="black" points="231.62,-352.88 231.62,-455.62 350.38,-455.62 350.38,-352.88 231.62,-352.88"/>
<text text-anchor="start" x="247.12" y="-438.32" font-family="Times New Roman,serif" font-size="14.00">JobSeekerSkills</text>
<polyline fill="none" stroke="black" points="231.62,-431.88 350.38,-431.88"/>
<text text-anchor="start" x="239.62" y="-414.57" font-family="Times New Roman,serif" font-size="14.00">id : int</text>
<text text-anchor="start" x="239.62" y="-398.82" font-family="Times New Roman,serif" font-size="14.00">job_seeker_id : int</text>
<text text-anchor="start" x="239.62" y="-383.07" font-family="Times New Roman,serif" font-size="14.00">skill_name : str</text>
<polyline fill="none" stroke="black" points="231.62,-376.62 350.38,-376.62"/>
<text text-anchor="start" x="289.12" y="-359.32" font-family="Times New Roman,serif" font-size="14.00"> </text>
</g>
<!-- aiogram&#45;coursework.models.job_seeker.JobSeekerSkills&#45;&gt;aiogram&#45;coursework.models.base.Base -->
<g id="edge4" class="edge">
<title>aiogram&#45;coursework.models.job_seeker.JobSeekerSkills&#45;&gt;aiogram&#45;coursework.models.base.Base</title>
<path fill="none" stroke="black" d="M310.9,-455.74C319.24,-476.89 328.86,-501.29 336.98,-521.91"/>
<polygon fill="none" stroke="black" points="333.72,-523.18 340.64,-531.2 340.23,-520.62 333.72,-523.18"/>
</g>
<!-- aiogram&#45;coursework.states.Menu -->
<g id="node9" class="node">
<title>aiogram&#45;coursework.states.Menu</title>
<polygon fill="none" stroke="black" points="1312.25,-79.25 1312.25,-182 1467.75,-182 1467.75,-79.25 1312.25,-79.25"/>
<text text-anchor="start" x="1374.25" y="-164.7" font-family="Times New Roman,serif" font-size="14.00">Menu</text>
<polyline fill="none" stroke="black" points="1312.25,-158.25 1467.75,-158.25"/>
<text text-anchor="start" x="1320.25" y="-140.95" font-family="Times New Roman,serif" font-size="14.00">create_job_seeker : State</text>
<text text-anchor="start" x="1320.25" y="-125.2" font-family="Times New Roman,serif" font-size="14.00">job_seeker : State</text>
<text text-anchor="start" x="1320.25" y="-109.45" font-family="Times New Roman,serif" font-size="14.00">vacancies : State</text>
<polyline fill="none" stroke="black" points="1312.25,-103 1467.75,-103"/>
<text text-anchor="start" x="1388.12" y="-85.7" font-family="Times New Roman,serif" font-size="14.00"> </text>
</g>
<!-- aiogram&#45;coursework.states.Menu&#45;&gt;aiogram.fsm.state.StatesGroup -->
<g id="edge11" class="edge">
<title>aiogram&#45;coursework.states.Menu&#45;&gt;aiogram.fsm.state.StatesGroup</title>
<path fill="none" stroke="black" d="M1358.78,-182.4C1324.92,-237.47 1271.87,-323.77 1243.13,-370.51"/>
<polygon fill="none" stroke="black" points="1240.26,-368.5 1238,-378.85 1246.22,-372.16 1240.26,-368.5"/>
</g>
<!-- aiogram&#45;coursework.db.Repo -->
<g id="node10" class="node">
<title>aiogram&#45;coursework.db.Repo</title>
<polygon fill="none" stroke="black" points="1486.12,-0.5 1486.12,-260.75 1823.88,-260.75 1823.88,-0.5 1486.12,-0.5"/>
<text text-anchor="start" x="1639.62" y="-243.45" font-family="Times New Roman,serif" font-size="14.00">Repo</text>
<polyline fill="none" stroke="black" points="1486.12,-237 1823.88,-237"/>
<text text-anchor="start" x="1589.38" y="-219.7" font-family="Times New Roman,serif" font-size="14.00">session : AsyncSession</text>
<polyline fill="none" stroke="black" points="1486.12,-213.25 1823.88,-213.25"/>
<text text-anchor="start" x="1494.12" y="-195.95" font-family="Times New Roman,serif" font-size="14.00">add_jobseeker(user_id: int, data: dict)</text>
<text text-anchor="start" x="1494.12" y="-180.2" font-family="Times New Roman,serif" font-size="14.00">add_user(user_id: int)</text>
<text text-anchor="start" x="1494.12" y="-164.45" font-family="Times New Roman,serif" font-size="14.00">add_vacancy(user_id: int, data: dict)</text>
<text text-anchor="start" x="1494.12" y="-148.7" font-family="Times New Roman,serif" font-size="14.00">delete_jobseeker(jobseeker_id: int)</text>
<text text-anchor="start" x="1494.12" y="-132.95" font-family="Times New Roman,serif" font-size="14.00">delete_vacancy(vacancy_id: int)</text>
<text text-anchor="start" x="1494.12" y="-117.2" font-family="Times New Roman,serif" font-size="14.00">get_jobseeker(jobseeker_id: int): JobSeeker</text>
<text text-anchor="start" x="1494.12" y="-101.45" font-family="Times New Roman,serif" font-size="14.00">get_user(user_id: int): User | None</text>
<text text-anchor="start" x="1494.12" y="-85.7" font-family="Times New Roman,serif" font-size="14.00">get_vacancy(vacancy_id: int): Vacancy</text>
<text text-anchor="start" x="1494.12" y="-69.95" font-family="Times New Roman,serif" font-size="14.00">get_vacancy_user_id(vacancy_id: int)</text>
<text text-anchor="start" x="1494.12" y="-54.2" font-family="Times New Roman,serif" font-size="14.00">paginate_jobseeker(index: int): JobSeeker</text>
<text text-anchor="start" x="1494.12" y="-38.45" font-family="Times New Roman,serif" font-size="14.00">paginate_user_vacancies(user_id: int, index: int): Vacancy</text>
<text text-anchor="start" x="1494.12" y="-22.7" font-family="Times New Roman,serif" font-size="14.00">paginate_vacancies(user_id: int, index: int): Vacancy</text>
<text text-anchor="start" x="1494.12" y="-6.95" font-family="Times New Roman,serif" font-size="14.00">paginate_vacencies(index: int): Vacancy</text>
</g>
<!-- aiogram&#45;coursework.models.user.User&#45;&gt;aiogram&#45;coursework.models.base.Base -->
<g id="edge5" class="edge">
<title>aiogram&#45;coursework.models.user.User&#45;&gt;aiogram&#45;coursework.models.base.Base</title>
<path fill="none" stroke="black" d="M190.99,-463.65C200.79,-474.96 211.68,-486.18 223,-495.5 240.17,-509.63 260.52,-522.35 280.04,-533.02"/>
<polygon fill="none" stroke="black" points="278.34,-536.08 288.81,-537.7 281.64,-529.9 278.34,-536.08"/>
</g>
<!-- aiogram&#45;coursework.models.user.UserVacancy -->
<g id="node13" class="node">
<title>aiogram&#45;coursework.models.user.UserVacancy</title>
<polygon fill="none" stroke="black" points="368.12,-352.88 368.12,-455.62 471.88,-455.62 471.88,-352.88 368.12,-352.88"/>
<text text-anchor="start" x="382.5" y="-438.32" font-family="Times New Roman,serif" font-size="14.00">UserVacancy</text>
<polyline fill="none" stroke="black" points="368.12,-431.88 471.88,-431.88"/>
<text text-anchor="start" x="376.12" y="-414.57" font-family="Times New Roman,serif" font-size="14.00">id : int</text>
<text text-anchor="start" x="376.12" y="-398.82" font-family="Times New Roman,serif" font-size="14.00">user_id : int</text>
<text text-anchor="start" x="376.12" y="-383.07" font-family="Times New Roman,serif" font-size="14.00">vacancy_id : int</text>
<polyline fill="none" stroke="black" points="368.12,-376.62 471.88,-376.62"/>
<text text-anchor="start" x="418.12" y="-359.32" font-family="Times New Roman,serif" font-size="14.00"> </text>
</g>
<!-- aiogram&#45;coursework.models.user.UserVacancy&#45;&gt;aiogram&#45;coursework.models.base.Base -->
<g id="edge6" class="edge">
<title>aiogram&#45;coursework.models.user.UserVacancy&#45;&gt;aiogram&#45;coursework.models.base.Base</title>
<path fill="none" stroke="black" d="M399.79,-455.74C391.28,-476.98 381.46,-501.52 373.19,-522.19"/>
<polygon fill="none" stroke="black" points="370.05,-520.62 369.58,-531.21 376.54,-523.22 370.05,-520.62"/>
</g>
<!-- aiogram&#45;coursework.models.vacancy.Vacancy -->
<g id="node14" class="node">
<title>aiogram&#45;coursework.models.vacancy.Vacancy</title>
<polygon fill="none" stroke="black" points="489.5,-313.5 489.5,-495 652.5,-495 652.5,-313.5 489.5,-313.5"/>
<text text-anchor="start" x="546.62" y="-477.7" font-family="Times New Roman,serif" font-size="14.00">Vacancy</text>
<polyline fill="none" stroke="black" points="489.5,-471.25 652.5,-471.25"/>
<text text-anchor="start" x="497.5" y="-453.95" font-family="Times New Roman,serif" font-size="14.00">company_name : str</text>
<text text-anchor="start" x="497.5" y="-438.2" font-family="Times New Roman,serif" font-size="14.00">description : str</text>
<text text-anchor="start" x="497.5" y="-422.45" font-family="Times New Roman,serif" font-size="14.00">id : int</text>
<text text-anchor="start" x="497.5" y="-406.7" font-family="Times New Roman,serif" font-size="14.00">location : str</text>
<text text-anchor="start" x="497.5" y="-390.95" font-family="Times New Roman,serif" font-size="14.00">posted_date : datetime</text>
<text text-anchor="start" x="497.5" y="-375.2" font-family="Times New Roman,serif" font-size="14.00">salary : int</text>
<text text-anchor="start" x="497.5" y="-359.45" font-family="Times New Roman,serif" font-size="14.00">skills : List[VacancySkills]</text>
<text text-anchor="start" x="497.5" y="-343.7" font-family="Times New Roman,serif" font-size="14.00">title : str</text>
<polyline fill="none" stroke="black" points="489.5,-337.25 652.5,-337.25"/>
<text text-anchor="start" x="569.12" y="-319.95" font-family="Times New Roman,serif" font-size="14.00"> </text>
</g>
<!-- aiogram&#45;coursework.models.vacancy.Vacancy&#45;&gt;aiogram&#45;coursework.models.base.Base -->
<g id="edge7" class="edge">
<title>aiogram&#45;coursework.models.vacancy.Vacancy&#45;&gt;aiogram&#45;coursework.models.base.Base</title>
<path fill="none" stroke="black" d="M489.16,-489.03C486.45,-491.25 483.72,-493.42 481,-495.5 465.13,-507.65 446.99,-519.2 429.53,-529.34"/>
<polygon fill="none" stroke="black" points="428.17,-526.09 421.22,-534.08 431.64,-532.17 428.17,-526.09"/>
</g>
<!-- aiogram&#45;coursework.models.vacancy.VacancySkills -->
<g id="node15" class="node">
<title>aiogram&#45;coursework.models.vacancy.VacancySkills</title>
<polygon fill="none" stroke="black" points="670.75,-352.88 670.75,-455.62 775.25,-455.62 775.25,-352.88 670.75,-352.88"/>
<text text-anchor="start" x="683.62" y="-438.32" font-family="Times New Roman,serif" font-size="14.00">VacancySkills</text>
<polyline fill="none" stroke="black" points="670.75,-431.88 775.25,-431.88"/>
<text text-anchor="start" x="678.75" y="-414.57" font-family="Times New Roman,serif" font-size="14.00">id : int</text>
<text text-anchor="start" x="678.75" y="-398.82" font-family="Times New Roman,serif" font-size="14.00">skill_name : str</text>
<text text-anchor="start" x="678.75" y="-383.07" font-family="Times New Roman,serif" font-size="14.00">vacancy_id : str</text>
<polyline fill="none" stroke="black" points="670.75,-376.62 775.25,-376.62"/>
<text text-anchor="start" x="721.12" y="-359.32" font-family="Times New Roman,serif" font-size="14.00"> </text>
</g>
<!-- aiogram&#45;coursework.models.vacancy.VacancySkills&#45;&gt;aiogram&#45;coursework.models.base.Base -->
<g id="edge8" class="edge">
<title>aiogram&#45;coursework.models.vacancy.VacancySkills&#45;&gt;aiogram&#45;coursework.models.base.Base</title>
<path fill="none" stroke="black" d="M697.65,-455.81C688.02,-470.56 675.75,-485.41 661,-495.5 592.34,-542.49 496.96,-559.09 431.01,-564.83"/>
<polygon fill="none" stroke="black" points="431.07,-561.32 421.39,-565.61 431.63,-568.3 431.07,-561.32"/>
</g>
</g>
</svg>
