<?xml version="1.0" encoding="UTF-8" standalone="no"?>
<!DOCTYPE svg PUBLIC "-//W3C//DTD SVG 1.1//EN"
 "http://www.w3.org/Graphics/SVG/1.1/DTD/svg11.dtd">
<!-- Generated by graphviz version 11.0.0 (20240428.1522)
 -->
<!-- Title: packages_my_project Pages: 1 -->
<svg width="1804pt" height="476pt"
 viewBox="0.00 0.00 1804.50 476.00" xmlns="http://www.w3.org/2000/svg" xmlns:xlink="http://www.w3.org/1999/xlink">
<g id="graph0" class="graph" transform="scale(1 1) rotate(0) translate(4 472)">
<title>packages_my_project</title>
<polygon fill="white" stroke="none" points="-4,4 -4,-472 1800.5,-472 1800.5,4 -4,4"/>
<!-- aiogram&#45;coursework -->
<g id="node1" class="node">
<title>aiogram&#45;coursework</title>
<polygon fill="none" stroke="black" points="329.12,-36 198.37,-36 198.37,0 329.12,0 329.12,-36"/>
<text text-anchor="middle" x="263.75" y="-12.57" font-family="Times New Roman,serif" font-size="14.00">aiogram&#45;coursework</text>
</g>
<!-- aiogram&#45;coursework.config -->
<g id="node2" class="node">
<title>aiogram&#45;coursework.config</title>
<polygon fill="none" stroke="black" points="510.62,-252 340.87,-252 340.87,-216 510.62,-216 510.62,-252"/>
<text text-anchor="middle" x="425.75" y="-228.57" font-family="Times New Roman,serif" font-size="14.00">aiogram&#45;coursework.config</text>
</g>
<!-- aiogram&#45;coursework.db -->
<g id="node3" class="node">
<title>aiogram&#45;coursework.db</title>
<polygon fill="none" stroke="black" points="418.5,-180 269,-180 269,-144 418.5,-144 418.5,-180"/>
<text text-anchor="middle" x="343.75" y="-156.57" font-family="Times New Roman,serif" font-size="14.00">aiogram&#45;coursework.db</text>
</g>
<!-- aiogram&#45;coursework.db&#45;&gt;aiogram&#45;coursework.config -->
<g id="edge1" class="edge">
<title>aiogram&#45;coursework.db&#45;&gt;aiogram&#45;coursework.config</title>
<path fill="none" stroke="black" d="M364.02,-180.3C373.97,-188.8 386.14,-199.19 397.03,-208.49"/>
<polygon fill="black" stroke="black" points="404.5,-214.86 393.97,-211.79 401.63,-212.41 396.9,-208.37 396.9,-208.37 396.9,-208.37 401.63,-212.41 399.82,-204.95 404.5,-214.86"/>
</g>
<!-- aiogram&#45;coursework.models -->
<g id="node13" class="node">
<title>aiogram&#45;coursework.models</title>
<polygon fill="none" stroke="black" points="302.25,-252 127.25,-252 127.25,-216 302.25,-216 302.25,-252"/>
<text text-anchor="middle" x="214.75" y="-228.57" font-family="Times New Roman,serif" font-size="14.00">aiogram&#45;coursework.models</text>
</g>
<!-- aiogram&#45;coursework.db&#45;&gt;aiogram&#45;coursework.models -->
<g id="edge2" class="edge">
<title>aiogram&#45;coursework.db&#45;&gt;aiogram&#45;coursework.models</title>
<path fill="none" stroke="black" d="M311.53,-180.48C294.78,-189.57 274.12,-200.78 256.19,-210.51"/>
<polygon fill="black" stroke="black" points="247.63,-215.16 254.27,-206.43 250.95,-213.35 256.42,-210.39 256.42,-210.39 256.42,-210.39 250.95,-213.35 258.56,-214.34 247.63,-215.16"/>
</g>
<!-- aiogram&#45;coursework.handlers -->
<g id="node4" class="node">
<title>aiogram&#45;coursework.handlers</title>
<polygon fill="none" stroke="black" points="1099.25,-108 918.25,-108 918.25,-72 1099.25,-72 1099.25,-108"/>
<text text-anchor="middle" x="1008.75" y="-84.58" font-family="Times New Roman,serif" font-size="14.00">aiogram&#45;coursework.handlers</text>
</g>
<!-- aiogram&#45;coursework.handlers.cmd -->
<g id="node5" class="node">
<title>aiogram&#45;coursework.handlers.cmd</title>
<polygon fill="none" stroke="black" points="1232.5,-180 1023,-180 1023,-144 1232.5,-144 1232.5,-180"/>
<text text-anchor="middle" x="1127.75" y="-156.57" font-family="Times New Roman,serif" font-size="14.00">aiogram&#45;coursework.handlers.cmd</text>
</g>
<!-- aiogram&#45;coursework.handlers&#45;&gt;aiogram&#45;coursework.handlers.cmd -->
<g id="edge3" class="edge">
<title>aiogram&#45;coursework.handlers&#45;&gt;aiogram&#45;coursework.handlers.cmd</title>
<path fill="none" stroke="black" d="M1038.47,-108.48C1053.78,-117.49 1072.63,-128.58 1089.06,-138.24"/>
<polygon fill="black" stroke="black" points="1097.36,-143.12 1086.45,-141.93 1094.1,-141.2 1088.74,-138.05 1088.74,-138.05 1088.74,-138.05 1094.1,-141.2 1091.02,-134.17 1097.36,-143.12"/>
</g>
<!-- aiogram&#45;coursework.handlers.job_seeker -->
<g id="node6" class="node">
<title>aiogram&#45;coursework.handlers.job_seeker</title>
<polygon fill="none" stroke="black" points="1496.5,-180 1251,-180 1251,-144 1496.5,-144 1496.5,-180"/>
<text text-anchor="middle" x="1373.75" y="-156.57" font-family="Times New Roman,serif" font-size="14.00">aiogram&#45;coursework.handlers.job_seeker</text>
</g>
<!-- aiogram&#45;coursework.handlers&#45;&gt;aiogram&#45;coursework.handlers.job_seeker -->
<g id="edge4" class="edge">
<title>aiogram&#45;coursework.handlers&#45;&gt;aiogram&#45;coursework.handlers.job_seeker</title>
<path fill="none" stroke="black" d="M1099.44,-108.39C1151.69,-118.41 1217.51,-131.04 1271.57,-141.4"/>
<polygon fill="black" stroke="black" points="1281.38,-143.28 1270.71,-145.82 1277.66,-142.57 1271.55,-141.4 1271.55,-141.4 1271.55,-141.4 1277.66,-142.57 1272.4,-136.98 1281.38,-143.28"/>
</g>
<!-- aiogram&#45;coursework.handlers.search_jobseeker -->
<g id="node7" class="node">
<title>aiogram&#45;coursework.handlers.search_jobseeker</title>
<polygon fill="none" stroke="black" points="1796.5,-180 1515,-180 1515,-144 1796.5,-144 1796.5,-180"/>
<text text-anchor="middle" x="1655.75" y="-156.57" font-family="Times New Roman,serif" font-size="14.00">aiogram&#45;coursework.handlers.search_jobseeker</text>
</g>
<!-- aiogram&#45;coursework.handlers&#45;&gt;aiogram&#45;coursework.handlers.search_jobseeker -->
<g id="edge5" class="edge">
<title>aiogram&#45;coursework.handlers&#45;&gt;aiogram&#45;coursework.handlers.search_jobseeker</title>
<path fill="none" stroke="black" d="M1099.46,-100.49C1196.67,-110.7 1355.86,-127.55 1503.75,-143.78"/>
<polygon fill="black" stroke="black" points="1513.62,-144.87 1503.19,-148.25 1509.86,-144.46 1503.68,-143.78 1503.68,-143.78 1503.68,-143.78 1509.86,-144.46 1504.17,-139.3 1513.62,-144.87"/>
</g>
<!-- aiogram&#45;coursework.handlers.search_vacancies -->
<g id="node8" class="node">
<title>aiogram&#45;coursework.handlers.search_vacancies</title>
<polygon fill="none" stroke="black" points="756.87,-180 474.62,-180 474.62,-144 756.87,-144 756.87,-180"/>
<text text-anchor="middle" x="615.75" y="-156.57" font-family="Times New Roman,serif" font-size="14.00">aiogram&#45;coursework.handlers.search_vacancies</text>
</g>
<!-- aiogram&#45;coursework.handlers&#45;&gt;aiogram&#45;coursework.handlers.search_vacancies -->
<g id="edge6" class="edge">
<title>aiogram&#45;coursework.handlers&#45;&gt;aiogram&#45;coursework.handlers.search_vacancies</title>
<path fill="none" stroke="black" d="M918.09,-107.15C860.46,-117.41 785.52,-130.76 724.66,-141.6"/>
<polygon fill="black" stroke="black" points="715.06,-143.31 724.12,-137.13 718.78,-142.65 724.91,-141.56 724.91,-141.56 724.91,-141.56 718.78,-142.65 725.69,-145.99 715.06,-143.31"/>
</g>
<!-- aiogram&#45;coursework.handlers.vacancy -->
<g id="node9" class="node">
<title>aiogram&#45;coursework.handlers.vacancy</title>
<polygon fill="none" stroke="black" points="1005,-180 774.5,-180 774.5,-144 1005,-144 1005,-180"/>
<text text-anchor="middle" x="889.75" y="-156.57" font-family="Times New Roman,serif" font-size="14.00">aiogram&#45;coursework.handlers.vacancy</text>
</g>
<!-- aiogram&#45;coursework.handlers&#45;&gt;aiogram&#45;coursework.handlers.vacancy -->
<g id="edge7" class="edge">
<title>aiogram&#45;coursework.handlers&#45;&gt;aiogram&#45;coursework.handlers.vacancy</title>
<path fill="none" stroke="black" d="M979.03,-108.48C963.72,-117.49 944.87,-128.58 928.44,-138.24"/>
<polygon fill="black" stroke="black" points="920.14,-143.12 926.48,-134.17 923.4,-141.2 928.76,-138.05 928.76,-138.05 928.76,-138.05 923.4,-141.2 931.04,-141.93 920.14,-143.12"/>
</g>
<!-- aiogram&#45;coursework.kb -->
<g id="node10" class="node">
<title>aiogram&#45;coursework.kb</title>
<polygon fill="none" stroke="black" points="675.12,-36 526.37,-36 526.37,0 675.12,0 675.12,-36"/>
<text text-anchor="middle" x="600.75" y="-12.57" font-family="Times New Roman,serif" font-size="14.00">aiogram&#45;coursework.kb</text>
</g>
<!-- aiogram&#45;coursework.main -->
<g id="node11" class="node">
<title>aiogram&#45;coursework.main</title>
<polygon fill="none" stroke="black" points="508.12,-36 347.37,-36 347.37,0 508.12,0 508.12,-36"/>
<text text-anchor="middle" x="427.75" y="-12.57" font-family="Times New Roman,serif" font-size="14.00">aiogram&#45;coursework.main</text>
</g>
<!-- aiogram&#45;coursework.main&#45;&gt;aiogram&#45;coursework.config -->
<g id="edge8" class="edge">
<title>aiogram&#45;coursework.main&#45;&gt;aiogram&#45;coursework.config</title>
<path fill="none" stroke="black" d="M427.96,-36.39C428.28,-65.92 428.73,-127.74 427.75,-180 427.6,-188.04 427.32,-196.76 427.01,-204.77"/>
<polygon fill="black" stroke="black" points="426.61,-214.6 422.52,-204.43 426.77,-210.82 427.02,-204.61 427.02,-204.61 427.02,-204.61 426.77,-210.82 431.51,-204.79 426.61,-214.6"/>
</g>
<!-- aiogram&#45;coursework.main&#45;&gt;aiogram&#45;coursework.db -->
<g id="edge9" class="edge">
<title>aiogram&#45;coursework.main&#45;&gt;aiogram&#45;coursework.db</title>
<path fill="none" stroke="black" d="M422.22,-36.17C415.85,-54.69 404.37,-84.64 389.75,-108 383.7,-117.66 375.94,-127.33 368.51,-135.72"/>
<polygon fill="black" stroke="black" points="361.81,-143.05 365.24,-132.63 364.36,-140.26 368.56,-135.67 368.56,-135.67 368.56,-135.67 364.36,-140.26 371.88,-138.71 361.81,-143.05"/>
</g>
<!-- aiogram&#45;coursework.main&#45;&gt;aiogram&#45;coursework.handlers -->
<g id="edge10" class="edge">
<title>aiogram&#45;coursework.main&#45;&gt;aiogram&#45;coursework.handlers</title>
<path fill="none" stroke="black" d="M508.17,-34.52C511.4,-35.04 514.6,-35.53 517.75,-36 651.82,-55.87 807.52,-71.41 907.03,-80.39"/>
<polygon fill="black" stroke="black" points="916.77,-81.26 906.4,-84.85 913,-80.92 906.81,-80.37 906.81,-80.37 906.81,-80.37 913,-80.92 907.21,-75.89 916.77,-81.26"/>
</g>
<!-- aiogram&#45;coursework.middleware -->
<g id="node12" class="node">
<title>aiogram&#45;coursework.middleware</title>
<polygon fill="none" stroke="black" points="380.87,-108 182.62,-108 182.62,-72 380.87,-72 380.87,-108"/>
<text text-anchor="middle" x="281.75" y="-84.58" font-family="Times New Roman,serif" font-size="14.00">aiogram&#45;coursework.middleware</text>
</g>
<!-- aiogram&#45;coursework.main&#45;&gt;aiogram&#45;coursework.middleware -->
<g id="edge11" class="edge">
<title>aiogram&#45;coursework.main&#45;&gt;aiogram&#45;coursework.middleware</title>
<path fill="none" stroke="black" d="M391.28,-36.48C372.14,-45.66 348.47,-57.01 328.04,-66.8"/>
<polygon fill="black" stroke="black" points="319.1,-71.09 326.17,-62.71 322.51,-69.46 328.12,-66.77 328.12,-66.77 328.12,-66.77 322.51,-69.46 330.06,-70.83 319.1,-71.09"/>
</g>
<!-- aiogram&#45;coursework.middleware&#45;&gt;aiogram&#45;coursework.db -->
<g id="edge12" class="edge">
<title>aiogram&#45;coursework.middleware&#45;&gt;aiogram&#45;coursework.db</title>
<path fill="none" stroke="black" d="M297.07,-108.3C304.36,-116.53 313.21,-126.52 321.23,-135.58"/>
<polygon fill="black" stroke="black" points="327.79,-142.98 317.79,-138.48 325.28,-140.15 321.16,-135.5 321.16,-135.5 321.16,-135.5 325.28,-140.15 324.53,-132.51 327.79,-142.98"/>
</g>
<!-- aiogram&#45;coursework.models.base -->
<g id="node14" class="node">
<title>aiogram&#45;coursework.models.base</title>
<polygon fill="none" stroke="black" points="316.87,-468 112.62,-468 112.62,-432 316.87,-432 316.87,-468"/>
<text text-anchor="middle" x="214.75" y="-444.57" font-family="Times New Roman,serif" font-size="14.00">aiogram&#45;coursework.models.base</text>
</g>
<!-- aiogram&#45;coursework.models&#45;&gt;aiogram&#45;coursework.models.base -->
<g id="edge13" class="edge">
<title>aiogram&#45;coursework.models&#45;&gt;aiogram&#45;coursework.models.base</title>
<path fill="none" stroke="black" d="M157.98,-252.42C82.05,-278.66 -37.61,-332.1 11.75,-396 23.73,-411.51 61.52,-423.35 101.3,-431.86"/>
<polygon fill="black" stroke="black" points="111.08,-433.87 100.38,-436.26 107.38,-433.11 101.29,-431.86 101.29,-431.86 101.29,-431.86 107.38,-433.11 102.19,-427.45 111.08,-433.87"/>
</g>
<!-- aiogram&#45;coursework.models.job_seeker -->
<g id="node15" class="node">
<title>aiogram&#45;coursework.models.job_seeker</title>
<polygon fill="none" stroke="black" points="260.5,-396 21,-396 21,-360 260.5,-360 260.5,-396"/>
<text text-anchor="middle" x="140.75" y="-372.57" font-family="Times New Roman,serif" font-size="14.00">aiogram&#45;coursework.models.job_seeker</text>
</g>
<!-- aiogram&#45;coursework.models&#45;&gt;aiogram&#45;coursework.models.job_seeker -->
<g id="edge14" class="edge">
<title>aiogram&#45;coursework.models&#45;&gt;aiogram&#45;coursework.models.job_seeker</title>
<path fill="none" stroke="black" d="M199.27,-252.21C190.91,-262.14 180.86,-275.18 173.75,-288 163,-307.36 154.45,-330.91 148.74,-348.92"/>
<polygon fill="black" stroke="black" points="145.84,-358.43 144.46,-347.55 146.95,-354.81 148.76,-348.86 148.76,-348.86 148.76,-348.86 146.95,-354.81 153.06,-350.18 145.84,-358.43"/>
</g>
<!-- aiogram&#45;coursework.models.user -->
<g id="node16" class="node">
<title>aiogram&#45;coursework.models.user</title>
<polygon fill="none" stroke="black" points="384.75,-324 182.75,-324 182.75,-288 384.75,-288 384.75,-324"/>
<text text-anchor="middle" x="283.75" y="-300.57" font-family="Times New Roman,serif" font-size="14.00">aiogram&#45;coursework.models.user</text>
</g>
<!-- aiogram&#45;coursework.models&#45;&gt;aiogram&#45;coursework.models.user -->
<g id="edge15" class="edge">
<title>aiogram&#45;coursework.models&#45;&gt;aiogram&#45;coursework.models.user</title>
<path fill="none" stroke="black" d="M231.81,-252.3C240.08,-260.7 250.17,-270.93 259.24,-280.14"/>
<polygon fill="black" stroke="black" points="266.03,-287.03 255.81,-283.07 263.38,-284.33 259.01,-279.91 259.01,-279.91 259.01,-279.91 263.38,-284.33 262.22,-276.75 266.03,-287.03"/>
</g>
<!-- aiogram&#45;coursework.models.vacancy -->
<g id="node17" class="node">
<title>aiogram&#45;coursework.models.vacancy</title>
<polygon fill="none" stroke="black" points="541,-396 316.5,-396 316.5,-360 541,-360 541,-396"/>
<text text-anchor="middle" x="428.75" y="-372.57" font-family="Times New Roman,serif" font-size="14.00">aiogram&#45;coursework.models.vacancy</text>
</g>
<!-- aiogram&#45;coursework.models&#45;&gt;aiogram&#45;coursework.models.vacancy -->
<g id="edge16" class="edge">
<title>aiogram&#45;coursework.models&#45;&gt;aiogram&#45;coursework.models.vacancy</title>
<path fill="none" stroke="black" d="M302.39,-244.67C334.37,-252.08 368.78,-265.11 393.75,-288 411.04,-303.85 419.9,-329.31 424.38,-348.95"/>
<polygon fill="black" stroke="black" points="426.3,-358.52 419.92,-349.6 425.55,-354.82 424.33,-348.72 424.33,-348.72 424.33,-348.72 425.55,-354.82 428.75,-347.84 426.3,-358.52"/>
</g>
<!-- aiogram&#45;coursework.models.job_seeker&#45;&gt;aiogram&#45;coursework.models.base -->
<g id="edge17" class="edge">
<title>aiogram&#45;coursework.models.job_seeker&#45;&gt;aiogram&#45;coursework.models.base</title>
<path fill="none" stroke="black" d="M159.04,-396.3C167.94,-404.72 178.79,-414.98 188.54,-424.21"/>
<polygon fill="black" stroke="black" points="195.53,-430.82 185.17,-427.21 192.78,-428.22 188.26,-423.94 188.26,-423.94 188.26,-423.94 192.78,-428.22 191.35,-420.67 195.53,-430.82"/>
</g>
<!-- aiogram&#45;coursework.models.user&#45;&gt;aiogram&#45;coursework.models.base -->
<g id="edge18" class="edge">
<title>aiogram&#45;coursework.models.user&#45;&gt;aiogram&#45;coursework.models.base</title>
<path fill="none" stroke="black" d="M284.21,-324.41C284.01,-343.12 281.59,-373.25 269.75,-396 264.27,-406.52 255.91,-416.15 247.35,-424.24"/>
<polygon fill="black" stroke="black" points="240.08,-430.69 244.57,-420.69 242.91,-428.18 247.56,-424.06 247.56,-424.06 247.56,-424.06 242.91,-428.18 250.55,-427.42 240.08,-430.69"/>
</g>
<!-- aiogram&#45;coursework.models.user&#45;&gt;aiogram&#45;coursework.models.job_seeker -->
<g id="edge19" class="edge">
<title>aiogram&#45;coursework.models.user&#45;&gt;aiogram&#45;coursework.models.job_seeker</title>
<path fill="none" stroke="black" d="M248.03,-324.48C229.21,-333.7 205.92,-345.1 185.86,-354.92"/>
<polygon fill="black" stroke="black" points="177.1,-359.2 184.11,-350.77 180.5,-357.54 186.09,-354.81 186.09,-354.81 186.09,-354.81 180.5,-357.54 188.06,-358.85 177.1,-359.2"/>
</g>
<!-- aiogram&#45;coursework.models.user&#45;&gt;aiogram&#45;coursework.models.vacancy -->
<g id="edge20" class="edge">
<title>aiogram&#45;coursework.models.user&#45;&gt;aiogram&#45;coursework.models.vacancy</title>
<path fill="none" stroke="black" d="M319.96,-324.48C338.98,-333.66 362.48,-345.01 382.77,-354.8"/>
<polygon fill="black" stroke="black" points="391.65,-359.09 380.68,-358.79 388.24,-357.44 382.64,-354.74 382.64,-354.74 382.64,-354.74 388.24,-357.44 384.6,-350.69 391.65,-359.09"/>
</g>
<!-- aiogram&#45;coursework.models.vacancy&#45;&gt;aiogram&#45;coursework.models.base -->
<g id="edge21" class="edge">
<title>aiogram&#45;coursework.models.vacancy&#45;&gt;aiogram&#45;coursework.models.base</title>
<path fill="none" stroke="black" d="M375.3,-396.48C345.95,-406.08 309.37,-418.05 278.53,-428.14"/>
<polygon fill="black" stroke="black" points="269.05,-431.24 277.15,-423.85 272.64,-430.06 278.55,-428.13 278.55,-428.13 278.55,-428.13 272.64,-430.06 279.95,-432.41 269.05,-431.24"/>
</g>
<!-- aiogram&#45;coursework.states -->
<g id="node18" class="node">
<title>aiogram&#45;coursework.states</title>
<polygon fill="none" stroke="black" points="858.75,-36 692.75,-36 692.75,0 858.75,0 858.75,-36"/>
<text text-anchor="middle" x="775.75" y="-12.57" font-family="Times New Roman,serif" font-size="14.00">aiogram&#45;coursework.states</text>
</g>
<!-- aiogram&#45;coursework.utils -->
<g id="node19" class="node">
<title>aiogram&#45;coursework.utils</title>
<polygon fill="none" stroke="black" points="251.25,-180 94.25,-180 94.25,-144 251.25,-144 251.25,-180"/>
<text text-anchor="middle" x="172.75" y="-156.57" font-family="Times New Roman,serif" font-size="14.00">aiogram&#45;coursework.utils</text>
</g>
<!-- aiogram&#45;coursework.utils&#45;&gt;aiogram&#45;coursework.models -->
<g id="edge22" class="edge">
<title>aiogram&#45;coursework.utils&#45;&gt;aiogram&#45;coursework.models</title>
<path fill="none" stroke="black" d="M183.13,-180.3C187.86,-188.19 193.57,-197.7 198.82,-206.45"/>
<polygon fill="black" stroke="black" points="203.86,-214.85 194.86,-208.59 201.91,-211.61 198.71,-206.28 198.71,-206.28 198.71,-206.28 201.91,-211.61 202.57,-203.96 203.86,-214.85"/>
</g>
</g>
</svg>
